<svg width="25" height="25" viewBox="0 0 25 25" fill="none" xmlns="http://www.w3.org/2000/svg">
<path fill-rule="evenodd" clip-rule="evenodd" d="M16.2578 20.3159C16.0805 20.316 15.905 20.2811 15.7413 20.2131C15.5775 20.1452 15.4289 20.0455 15.3038 19.9199L8.55376 13.1699C8.42836 13.0446 8.32888 12.8957 8.26101 12.7319C8.19314 12.5681 8.1582 12.3925 8.1582 12.2152C8.1582 12.0378 8.19314 11.8623 8.26101 11.6984C8.32888 11.5346 8.42836 11.3858 8.55376 11.2604L15.3038 4.51042C15.4281 4.38069 15.5772 4.27711 15.7421 4.20574C15.9071 4.13437 16.0846 4.09665 16.2643 4.0948C16.444 4.09294 16.6223 4.12699 16.7886 4.19494C16.955 4.26289 17.1062 4.36338 17.2332 4.49051C17.3602 4.61764 17.4606 4.76885 17.5284 4.93528C17.5962 5.10171 17.6301 5.28001 17.6281 5.45972C17.6261 5.63943 17.5883 5.81693 17.5168 5.98181C17.4453 6.14669 17.3416 6.29564 17.2118 6.41992L11.4173 12.2159L17.2118 18.0104C17.4008 18.1991 17.5297 18.4397 17.582 18.7017C17.6343 18.9637 17.6076 19.2353 17.5055 19.4821C17.4034 19.7289 17.2303 19.9399 17.0082 20.0884C16.7861 20.2368 16.5249 20.316 16.2578 20.3159Z" fill="#121212"/>
</svg>
