<svg width="95" height="19" viewBox="0 0 95 19" fill="none" xmlns="http://www.w3.org/2000/svg">
<path d="M24.393 11.4927L23.4502 15.42H21.0038C19.4039 15.3952 18.8682 14.4886 19.3968 12.6967C19.5753 12.0416 19.9503 11.4892 20.5253 11.0359C21.1146 10.5366 21.8967 10.278 22.8645 10.2603H24.668L24.3752 11.4962H24.3859L24.393 11.4927ZM22.5074 7.0484C19.6968 7.21838 17.6718 8.46137 16.429 10.7774C15.504 12.8101 15.3648 14.6197 16.0112 16.2168C16.304 16.9569 16.7433 17.5412 17.3218 17.9697C17.9004 18.4017 18.7504 18.6496 19.8789 18.7205L26.4108 18.7665L29.2643 7.0484H22.5109H22.5074Z" fill="#FF307B"/>
<path d="M33.645 15.42C32.0451 15.3952 31.5094 14.4886 32.0379 12.6967C32.2165 12.0416 32.5915 11.4892 33.1665 11.0359C33.7414 10.5507 34.4914 10.2922 35.4235 10.2603H41.1162L41.8983 7.05194H35.145C32.3344 7.22192 30.3094 8.46491 29.0666 10.7809C28.1452 12.8136 28.0024 14.6232 28.6488 16.2203C28.9416 16.9604 29.3809 17.5448 29.9594 17.9732C30.538 18.4053 31.388 18.6532 32.5165 18.724L39.0484 18.77L39.8627 15.42H33.645Z" fill="#FF307B"/>
<path d="M53.4582 6.98803H49.2905L45.7513 10.9259L47.7869 3.17761H43.9692L40.0801 18.7663H43.8978L45.0656 13.4544L47.0905 18.7663H50.5583L48.2441 12.7851L53.4582 6.98803Z" fill="#FF307B"/>
<path d="M69.0334 8.22424C68.4191 7.42391 67.587 7.02374 66.5299 7.02374H65.2121L65.2014 7.03437C65.2014 7.03437 63.8371 6.99541 62.8122 8.23132C62.2336 7.42745 61.4015 7.02374 60.3123 7.02374H57.6909V7.03437H54.2196L51.3447 18.7631H55.1732L57.2445 10.2534H58.898C59.1087 10.2534 59.2766 10.3313 59.398 10.4836C59.5159 10.6288 59.5552 10.8023 59.5266 11.0041L57.5695 18.7631H61.3872L63.355 11.0041C63.4157 10.7492 63.4514 10.5013 63.4586 10.2534H65.1228C65.3335 10.2534 65.5014 10.3313 65.6228 10.4836C65.7406 10.6288 65.7799 10.8023 65.7514 11.0041L63.7943 18.7631H67.612L69.5798 11.0041C69.8119 9.94176 69.6262 9.01394 69.0191 8.2207L69.0334 8.22424Z" fill="#FF307B"/>
<path d="M78.265 11.4927L77.3222 15.42H74.8758C73.2759 15.3952 72.7402 14.4886 73.2688 12.6967C73.4473 12.0416 73.8223 11.4892 74.3973 11.0359C74.9865 10.5366 75.7687 10.278 76.7365 10.2603H78.54L78.2472 11.4962H78.2579L78.265 11.4927ZM76.3793 7.0484C73.5687 7.21838 71.5438 8.46137 70.301 10.7774C69.3796 12.8101 69.2367 14.6197 69.8831 16.2168C70.176 16.9569 70.6153 17.5412 71.1938 17.9697C71.7724 18.4017 72.6223 18.6496 73.7509 18.7205L80.2828 18.7665L83.1363 7.0484H76.3829H76.3793Z" fill="#FF307B"/>
<path d="M93.9106 8.22424C93.3035 7.42391 92.4821 7.02374 91.4429 7.02374H88.8215V7.03437H84.1538L81.2646 18.7631H85.0824L87.1787 10.2534H90.0215C90.2393 10.2534 90.4072 10.3313 90.5215 10.4836C90.6322 10.6288 90.6715 10.8023 90.65 11.0041L88.6823 18.7631H92.5L94.4678 11.0041C94.707 9.94176 94.5213 9.01394 93.9071 8.2207L93.9106 8.22424Z" fill="#FF307B"/>
<path d="M2.79269 0.480168C2.79269 0.480168 2.81695 0.500765 2.81349 0.514509L1.44323 5.96415C1.44323 5.96415 1.42246 5.98821 1.4086 5.98478L0.355167 5.72434L1.47661 1.2643C1.62176 0.687035 2.21053 0.33624 2.79269 0.480168Z" fill="#06C167"/>
<path d="M16.4459 6.93176C16.4459 4.14831 14.1709 1.89252 11.3639 1.89252H3.30703C3.3106 4.66534 -0.0785614 7.1159 2.67491 7.1159L11.2639 6.93176C11.6817 6.93176 12.021 7.26818 12.021 7.68251C12.021 8.09684 11.6817 8.43326 11.2639 8.43326L2.62849 8.46159L0 18.7667H4.93197L6.28907 13.4442H10.6496C13.8317 13.4442 16.4459 11.0963 16.4459 6.9353V6.93176Z" fill="#FF307B"/>
<path d="M2.19636 7.11517L11.4532 6.93457C12.246 6.9629 14.9602 7.23558 15.6745 10.4121C16.1602 9.4595 16.4387 8.29442 16.4387 6.93457C16.4387 4.15112 14.1638 1.89532 11.3568 1.89532H2.46777C2.22849 2.84439 1.70352 4.95853 1.70352 4.95853C-0.542832 5.1356 0.257142 7.11871 2.19636 7.11871V7.11517Z" fill="#121212"/>
</svg>
