<svg width="25" height="25" viewBox="0 0 25 25" fill="none" xmlns="http://www.w3.org/2000/svg">
<path fill-rule="evenodd" clip-rule="evenodd" d="M17.77 6.86374C17.77 7.50656 17.6435 8.1431 17.3976 8.73701C17.1516 9.33093 16.7911 9.87058 16.3366 10.3252C15.8821 10.7798 15.3425 11.1404 14.7487 11.3864C14.1548 11.6325 13.5183 11.7592 12.8755 11.7592C11.5772 11.7594 10.3321 11.2438 9.41405 10.3259C8.49597 9.40798 7.98012 8.16297 7.97998 6.86474C7.97992 6.22192 8.10647 5.58538 8.3524 4.99146C8.59834 4.39755 8.95885 3.85789 9.41334 3.4033C10.3312 2.48522 11.5762 1.96937 12.8745 1.96924C14.1727 1.96911 15.4178 2.4847 16.3359 3.4026C17.254 4.32049 17.7699 5.5655 17.77 6.86374ZM12.875 13.2567C5.82598 13.2567 3.08398 17.7427 3.08398 19.8297C3.08398 21.9157 8.92098 22.4717 12.875 22.4717C16.829 22.4717 22.666 21.9157 22.666 19.8297C22.666 17.7427 19.924 13.2567 12.875 13.2567Z" fill="#121212"/>
</svg>
